<svg xmlns="http://www.w3.org/2000/svg" viewBox="0 0 662 535" width="662" height="535" role="img" aria-label="Skill Radar" font-family="ui-sans-serif,-apple-system,Segoe UI,Helvetica,Arial,sans-serif"><text x="331.0" y="25" text-anchor="middle" font-size="15" font-weight="700" fill="#1f2328">Skill Radar</text><g transform="translate(359.4,289.0)"><polygon points="0.0,-212.0 136.3,-162.4 208.8,-36.8 183.6,106.0 72.5,199.2 -72.5,199.2 -183.6,106.0 -208.8,-36.8 -136.3,-162.4" fill="none" stroke="#d0d7de" stroke-width="1" opacity="0.85"/><polygon points="0.0,-159.0 102.2,-121.8 156.6,-27.6 137.7,79.5 54.4,149.4 -54.4,149.4 -137.7,79.5 -156.6,-27.6 -102.2,-121.8" fill="none" stroke="#d0d7de" stroke-width="1" opacity="0.72"/><polygon points="0.0,-106.0 68.1,-81.2 104.4,-18.4 91.8,53.0 36.3,99.6 -36.3,99.6 -91.8,53.0 -104.4,-18.4 -68.1,-81.2" fill="none" stroke="#d0d7de" stroke-width="1" opacity="0.60"/><polygon points="0.0,-53.0 34.1,-40.6 52.2,-9.2 45.9,26.5 18.1,49.8 -18.1,49.8 -45.9,26.5 -52.2,-9.2 -34.1,-40.6" fill="none" stroke="#d0d7de" stroke-width="1" opacity="0.47"/><line x1="0" y1="0" x2="0.0" y2="-212.0" stroke="#e6eaef" stroke-width="1"/><line x1="0" y1="0" x2="136.3" y2="-162.4" stroke="#e6eaef" stroke-width="1"/><line x1="0" y1="0" x2="208.8" y2="-36.8" stroke="#e6eaef" stroke-width="1"/><line x1="0" y1="0" x2="183.6" y2="106.0" stroke="#e6eaef" stroke-width="1"/><line x1="0" y1="0" x2="72.5" y2="199.2" stroke="#e6eaef" stroke-width="1"/><line x1="0" y1="0" x2="-72.5" y2="199.2" stroke="#e6eaef" stroke-width="1"/><line x1="0" y1="0" x2="-183.6" y2="106.0" stroke="#e6eaef" stroke-width="1"/><line x1="0" y1="0" x2="-208.8" y2="-36.8" stroke="#e6eaef" stroke-width="1"/><line x1="0" y1="0" x2="-136.3" y2="-162.4" stroke="#e6eaef" stroke-width="1"/><g><animateTransform attributeName="transform" type="scale" values="0.04;1" dur="1.1s" calcMode="spline" keyTimes="0;1" keySplines="0.22 1 0.36 1" fill="freeze"/><polygon points="0.0,-190.8 111.7,-133.2 183.7,-32.4 156.1,90.1 58.0,159.4 -52.2,143.4 -128.5,74.2 -173.3,-30.6 -95.4,-113.7" fill="#2da44e" fill-opacity="0.22" stroke="#1a7f37" stroke-width="2.5" stroke-linejoin="round"/><circle cx="0.0" cy="-190.8" r="3.6" fill="#116329" stroke="#1a7f37" stroke-width="1.2"/><circle cx="111.7" cy="-133.2" r="3.6" fill="#116329" stroke="#1a7f37" stroke-width="1.2"/><circle cx="183.7" cy="-32.4" r="3.6" fill="#116329" stroke="#1a7f37" stroke-width="1.2"/><circle cx="156.1" cy="90.1" r="3.6" fill="#116329" stroke="#1a7f37" stroke-width="1.2"/><circle cx="58.0" cy="159.4" r="3.6" fill="#116329" stroke="#1a7f37" stroke-width="1.2"/><circle cx="-52.2" cy="143.4" r="3.6" fill="#116329" stroke="#1a7f37" stroke-width="1.2"/><circle cx="-128.5" cy="74.2" r="3.6" fill="#116329" stroke="#1a7f37" stroke-width="1.2"/><circle cx="-173.3" cy="-30.6" r="3.6" fill="#116329" stroke="#1a7f37" stroke-width="1.2"/><circle cx="-95.4" cy="-113.7" r="3.6" fill="#116329" stroke="#1a7f37" stroke-width="1.2"/></g><text x="0.0" y="-237.0" text-anchor="middle" font-size="13" font-weight="600" fill="#1f2328">JavaScript</text><text x="149.1" y="-182.7" text-anchor="start" font-size="13" font-weight="600" fill="#1f2328">TypeScript</text><text x="228.5" y="-36.3" text-anchor="start" font-size="13" font-weight="600" fill="#1f2328">React.js</text><text x="200.9" y="130.0" text-anchor="start" font-size="13" font-weight="600" fill="#1f2328">Node / API</text><text x="79.3" y="232.0" text-anchor="start" font-size="13" font-weight="600" fill="#1f2328">Databases</text><text x="-79.3" y="232.0" text-anchor="end" font-size="13" font-weight="600" fill="#1f2328">Python</text><text x="-200.9" y="130.0" text-anchor="end" font-size="13" font-weight="600" fill="#1f2328">Cloud / CI</text><text x="-228.5" y="-36.3" text-anchor="end" font-size="13" font-weight="600" fill="#1f2328">Problem Solving</text><text x="-149.1" y="-182.7" text-anchor="end" font-size="13" font-weight="600" fill="#1f2328">Generative AI</text></g></svg>